<svg xmlns="http://www.w3.org/2000/svg" viewBox="0 0 64 64">
  <defs>
    <linearGradient id="g" x1="0" y1="0" x2="1" y2="1">
      <stop offset="0" stop-color="#ff3d7f"/>
      <stop offset="1" stop-color="#ffb020"/>
    </linearGradient>
  </defs>
  <rect width="64" height="64" rx="16" fill="url(#g)"/>
  <path d="M22 18l3-5h14l3 5h7a5 5 0 0 1 5 5v22a5 5 0 0 1-5 5H15a5 5 0 0 1-5-5V23a5 5 0 0 1 5-5z" fill="#fff"/>
  <circle cx="32" cy="33" r="11" fill="url(#g)"/>
  <path d="M26.5 32.5a5.5 5.5 0 0 0 11 0" fill="none" stroke="#fff" stroke-width="2.6" stroke-linecap="round"/>
  <circle cx="28" cy="29" r="1.6" fill="#fff"/>
  <circle cx="36" cy="29" r="1.6" fill="#fff"/>
</svg>
